<?xml version="1.0" encoding="utf-8"?>
<!-- Generator: Adobe Illustrator 18.0.0, SVG Export Plug-In . SVG Version: 6.00 Build 0)  -->
<!DOCTYPE svg PUBLIC "-//W3C//DTD SVG 1.1//EN" "http://www.w3.org/Graphics/SVG/1.1/DTD/svg11.dtd">
<svg version="1.1" id="Layer_1" xmlns="http://www.w3.org/2000/svg" xmlns:xlink="http://www.w3.org/1999/xlink" x="0px" y="0px"
	 viewBox="246.6 0 595.3 595.2" enable-background="new 246.6 0 595.3 595.2" xml:space="preserve">
<path fill="#FFFFFF" d="M544.2,0C379.9,0,246.6,133.3,246.6,297.6c0,164.4,133.3,297.6,297.6,297.6S841.9,462,841.9,297.6
	C841.9,133.3,708.6,0,544.2,0z M545.1,438.1L545.1,438.1h-1.8H416.2c0-93,81.7-93,99.8-117.3l2.1-11.1c-25.5-12.9-43.4-44-43.4-80.4
	c0-47.9,31.2-86.8,69.6-86.8s69.6,38.9,69.6,86.8c0,36.1-17.7,67-42.8,80.1l2.4,12.6c19.8,23.1,98.8,24.6,98.8,116.1H545.1z"/>
</svg>
