<?xml version="1.0" encoding="utf-8"?>
<!-- Generator: Adobe Illustrator 18.0.0, SVG Export Plug-In . SVG Version: 6.00 Build 0)  -->
<!DOCTYPE svg PUBLIC "-//W3C//DTD SVG 1.1//EN" "http://www.w3.org/Graphics/SVG/1.1/DTD/svg11.dtd">
<svg version="1.1" id="Capa_1" xmlns="http://www.w3.org/2000/svg" xmlns:xlink="http://www.w3.org/1999/xlink" x="0px" y="0px"
	 viewBox="534.6 82.4 595.3 430.4" enable-background="new 534.6 82.4 595.3 430.4" xml:space="preserve">
<path fill="#002FA7" d="M1129.8,297.6c0,7.6-5.1,12.7-12.7,12.7H547.3c-7.6,0-12.7-5.1-12.7-12.7c0-7.6,5.1-12.7,12.7-12.7h569.9
	C1124.7,284.9,1129.8,290,1129.8,297.6z"/>
<path fill="#002FA7" d="M1129.8,297.6c0,3.8-1.3,6.3-3.8,8.9L923.3,509c-5.1,5.1-12.7,5.1-17.7,0c-5.1-5.1-5.1-12.7,0-17.7
	l202.6-202.6c5.1-5.1,12.7-5.1,17.7,0C1128.5,291.2,1129.8,293.8,1129.8,297.6z"/>
<path fill="#002FA7" d="M1129.8,297.6c0,3.8-1.3,6.3-3.8,8.9c-5.1,5.1-12.7,5.1-17.7,0L905.7,103.9c-5.1-5.1-5.1-12.7,0-17.7
	c5.1-5.1,12.7-5.1,17.7,0L1126,288.7C1128.5,291.2,1129.8,293.8,1129.8,297.6z"/>
</svg>
