<?xml version="1.0" encoding="utf-8"?>
<!-- Generator: Adobe Illustrator 18.0.0, SVG Export Plug-In . SVG Version: 6.00 Build 0)  -->
<!DOCTYPE svg PUBLIC "-//W3C//DTD SVG 1.1//EN" "http://www.w3.org/Graphics/SVG/1.1/DTD/svg11.dtd">
<svg version="1.1" id="Capa_1" xmlns="http://www.w3.org/2000/svg" xmlns:xlink="http://www.w3.org/1999/xlink" x="0px" y="0px"
	 viewBox="123.3 64.3 595.3 466.6" enable-background="new 123.3 64.3 595.3 466.6" xml:space="preserve">
<g>
	<path d="M718.6,504L606.5,100.3l-96.6,26.8l10.7,38.4H413.1V112H312.9v39.6h-54.3V64.3H123.3v466.6h116.1h19.2h54.3h19.2h61.8h19.2
		h125.8V231.6L622,530.8L718.6,504z M332.1,131.3h61.8v47.6h-61.8V131.3z M332.1,258.6h61.8v218.6h-61.8V258.6z M332.1,239.4v-11
		h61.8v11H332.1z M332.1,209.1v-11h61.8v11H332.1z M239.4,474.3h-96.8V120.7h96.8V474.3z M239.4,83.6v17.9h-96.8V83.6H239.4z
		 M142.5,511.7v-18.2h96.8v18.2H142.5z M312.9,511.7h-54.3V170.9h54.3V511.7z M332.1,511.7v-15.4h61.8v15.4H332.1z M519.7,511.7
		H413.1V184.8h106.5V511.7z M635.4,507.1l-67.6-243.4l59.6-16.5l67.6,243.4L635.4,507.1z M562.6,245.2l-5.3-19.1l59.6-16.5l5.3,19.1
		L562.6,245.2z M593.1,124l18.6,67.1l-59.6,16.5l-18.6-67.1L593.1,124z"/>
	<rect x="435.5" y="205.6" width="61.9" height="19.2"/>
	<rect x="435.5" y="239.4" width="61.9" height="19.2"/>
	<rect x="435.5" y="273.1" width="61.9" height="19.2"/>
	<rect x="435.5" y="468.7" width="61.9" height="19.2"/>
	<rect x="276.1" y="348.9" width="19.2" height="32.4"/>
	<rect x="276.1" y="399.5" width="19.2" height="73.2"/>
	<rect x="276.1" y="243.3" width="19.2" height="87.2"/>
	<rect x="276.1" y="192.7" width="19.2" height="33.8"/>
</g>
</svg>
