<?xml version="1.0" encoding="utf-8"?>
<!-- Generator: Adobe Illustrator 18.0.0, SVG Export Plug-In . SVG Version: 6.00 Build 0)  -->
<!DOCTYPE svg PUBLIC "-//W3C//DTD SVG 1.1//EN" "http://www.w3.org/Graphics/SVG/1.1/DTD/svg11.dtd">
<svg version="1.1" id="Layer_1" xmlns="http://www.w3.org/2000/svg" xmlns:xlink="http://www.w3.org/1999/xlink" x="0px" y="0px"
	 viewBox="246.6 0 595.3 595.2" enable-background="new 246.6 0 595.3 595.2" xml:space="preserve">
<path fill="#FFFFFF" d="M544.2,0C379.9,0,246.6,133.3,246.6,297.6s133.3,297.6,297.6,297.6S841.9,462,841.9,297.6S708.6,0,544.2,0z
	 M327.4,409.7c0-93,81.7-93,99.8-117.3l2.1-11.1c-25.5-12.9-43.4-44-43.4-80.4c0-47.9,31.2-86.8,69.6-86.8c30.3,0,56,24.1,65.6,57.8
	c-38.5,12.2-67,54-67,103.6c0,34.2,13.5,65.6,35.6,85.6c-3.6,1.8-7.5,3.7-10.9,5.3c-17.8,8.4-42.6,20-60.4,43.3H327.4L327.4,409.7z
	 M545.1,484.4L545.1,484.4h-1.8H416.2c0-93,81.7-92.9,99.8-117.3l2.1-11.1c-25.5-12.9-43.4-44-43.4-80.4c0-47.9,31.2-86.8,69.6-86.8
	s69.6,38.9,69.6,86.8c0,36.1-17.7,67-42.8,80.1l2.4,12.6c19.8,23.2,98.8,24.7,98.8,116.1H545.1L545.1,484.4z M670.2,409.7
	L670.2,409.7L670.2,409.7c-17.8-23.3-42.6-34.9-60.4-43.3c-3.5-1.6-7.4-3.5-10.9-5.3c22.1-20,35.6-51.5,35.6-85.6
	c0-49.6-28.5-91.4-67-103.6c9.6-33.6,35.3-57.8,65.6-57.8c38.5,0,69.6,38.9,69.6,86.8c0,36.1-17.7,67-42.8,80.1l2.4,12.6
	c19.9,23.1,98.8,24.6,98.8,116.1L670.2,409.7L670.2,409.7z"/>
</svg>
