<?xml version="1.0" encoding="utf-8"?>
<!-- Generator: Adobe Illustrator 18.0.0, SVG Export Plug-In . SVG Version: 6.00 Build 0)  -->
<!DOCTYPE svg PUBLIC "-//W3C//DTD SVG 1.1//EN" "http://www.w3.org/Graphics/SVG/1.1/DTD/svg11.dtd">
<svg version="1.1" id="Layer_1" xmlns="http://www.w3.org/2000/svg" xmlns:xlink="http://www.w3.org/1999/xlink" x="0px" y="0px"
	 viewBox="123.3 105.2 595.3 384.9" enable-background="new 123.3 105.2 595.3 384.9" xml:space="preserve">
<g>
	<g>
		<path d="M706.7,105.2H135.2c-6.5,0-11.9,5.3-11.9,11.9v312.4c0,33.4,27.2,60.6,60.6,60.6h474c33.4,0,60.6-27.2,60.6-60.6V117
			C718.6,110.5,713.3,105.2,706.7,105.2z M694.9,429.5c0,20.4-16.6,36.9-36.9,36.9H184c-20.4,0-36.9-16.6-36.9-36.9V142.9L413.4,361
			c2.2,1.8,4.8,2.7,7.5,2.7c2.7,0,5.3-0.9,7.5-2.7l206.1-168.4c5.1-4.1,5.8-11.6,1.7-16.7c-4.1-5.1-11.6-5.8-16.7-1.7L421,336.5
			L167.3,128.9h527.5V429.5z"/>
	</g>
</g>
<g>
	<g>
		<path d="M669.7,148.7c-4.1-5.1-11.6-5.8-16.7-1.7l-3.6,2.9c-5.1,4.1-5.8,11.6-1.7,16.7c2.3,2.9,5.8,4.4,9.2,4.4
			c2.6,0,5.3-0.9,7.5-2.7l3.6-2.9C673.1,161.2,673.8,153.7,669.7,148.7z"/>
	</g>
</g>
</svg>
