<?xml version="1.0" encoding="utf-8"?>
<!-- Generator: Adobe Illustrator 18.0.0, SVG Export Plug-In . SVG Version: 6.00 Build 0)  -->
<!DOCTYPE svg PUBLIC "-//W3C//DTD SVG 1.1//EN" "http://www.w3.org/Graphics/SVG/1.1/DTD/svg11.dtd">
<svg version="1.1" id="Capa_1" xmlns="http://www.w3.org/2000/svg" xmlns:xlink="http://www.w3.org/1999/xlink" x="0px" y="0px"
	 viewBox="411.2 0 430.5 595.3" enable-background="new 411.2 0 430.5 595.3" xml:space="preserve">
<path fill="#FFFFFF" d="M626.5,595.3c-7.6,0-12.7-5.1-12.7-12.7V12.7c0-7.6,5.1-12.7,12.7-12.7c7.6,0,12.7,5.1,12.7,12.7v569.9
	C639.2,590.2,634.1,595.3,626.5,595.3z"/>
<path fill="#FFFFFF" d="M626.5,595.3c-3.8,0-6.3-1.3-8.9-3.8L415.1,388.8c-5.1-5.1-5.1-12.7,0-17.7c5.1-5.1,12.7-5.1,17.7,0
	l202.6,202.6c5.1,5.1,5.1,12.7,0,17.7C632.9,594,630.3,595.3,626.5,595.3z"/>
<path fill="#FFFFFF" d="M626.5,595.3c-3.8,0-6.3-1.3-8.9-3.8c-5.1-5.1-5.1-12.7,0-17.7l202.6-202.6c5.1-5.1,12.7-5.1,17.7,0
	c5.1,5.1,5.1,12.7,0,17.7L635.4,591.5C632.9,594,630.3,595.3,626.5,595.3z"/>
</svg>
