<?xml version="1.0" encoding="utf-8"?>
<!-- Generator: Adobe Illustrator 18.0.0, SVG Export Plug-In . SVG Version: 6.00 Build 0)  -->
<!DOCTYPE svg PUBLIC "-//W3C//DTD SVG 1.1//EN" "http://www.w3.org/Graphics/SVG/1.1/DTD/svg11.dtd">
<svg version="1.1" id="Layer_1" xmlns="http://www.w3.org/2000/svg" xmlns:xlink="http://www.w3.org/1999/xlink" x="0px" y="0px"
	 viewBox="246.6 0 595.3 595.2" enable-background="new 246.6 0 595.3 595.2" xml:space="preserve">
<path fill="#FFFFFF" d="M686.6,177.4H401.9c-2.8,0-5.1,2.3-5.1,5.1V373c0,2.8,2.3,5.1,5.1,5.1h284.8c2.8,0,5.1-2.3,5.1-5.1V182.6
	C691.8,179.7,689.5,177.4,686.6,177.4z"/>
<path fill="#FFFFFF" d="M544.2,0C379.9,0,246.6,133.3,246.6,297.6s133.3,297.6,297.6,297.6S841.9,462,841.9,297.6S708.6,0,544.2,0z
	 M727.8,373c0,22.7-18.4,41.2-41.2,41.2h-93.5v23h47.2c8.5,0,15.4,6.9,15.4,15.4c0,8.5-6.9,15.4-15.4,15.4H448.2
	c-8.5,0-15.4-6.9-15.4-15.4c0-8.5,6.9-15.4,15.4-15.4h47.2v-23h-93.5c-22.7,0-41.2-18.4-41.2-41.2V182.6c0-22.7,18.4-41.2,41.2-41.2
	h284.8c22.7,0,41.2,18.4,41.2,41.2V373H727.8z"/>
</svg>
