<?xml version="1.0" encoding="utf-8"?>
<!-- Generator: Adobe Illustrator 18.0.0, SVG Export Plug-In . SVG Version: 6.00 Build 0)  -->
<!DOCTYPE svg PUBLIC "-//W3C//DTD SVG 1.1//EN" "http://www.w3.org/Graphics/SVG/1.1/DTD/svg11.dtd">
<svg version="1.1" id="Layer_1" xmlns="http://www.w3.org/2000/svg" xmlns:xlink="http://www.w3.org/1999/xlink" x="0px" y="0px"
	 viewBox="123.3 0 595.3 595.3" enable-background="new 123.3 0 595.3 595.3" xml:space="preserve">
<g>
	<g>
		<g>
			<path d="M272.1,317.5h59.5c5.5,0,9.9-4.4,9.9-9.9c0-5.5-4.4-9.9-9.9-9.9H282v-19.8h9.9c5.5,0,9.9-4.4,9.9-9.9
				c0-5.5-4.4-9.9-9.9-9.9H282v-19.8h9.9c5.5,0,9.9-4.4,9.9-9.9c0-5.5-4.4-9.9-9.9-9.9H282v-19.8h49.6c5.5,0,9.9-4.4,9.9-9.9
				s-4.4-9.9-9.9-9.9H282v-19.8h9.9c5.5,0,9.9-4.4,9.9-9.9s-4.4-9.9-9.9-9.9H282v-19.8h9.9c5.5,0,9.9-4.4,9.9-9.9s-4.4-9.9-9.9-9.9
				H282V79.4h49.6c5.5,0,9.9-4.4,9.9-9.9s-4.4-9.9-9.9-9.9H282V19.8h138.9v287.7c0,5.5,4.4,9.9,9.9,9.9s9.9-4.4,9.9-9.9V9.9
				c0-5.5-4.4-9.9-9.9-9.9H272.1c-5.5,0-9.9,4.4-9.9,9.9v297.6C262.2,313,266.6,317.5,272.1,317.5z"/>
			<path d="M133.2,317.5c5.5,0,9.9-4.4,9.9-9.9v-258c0-14.5,15.3-29.8,29.8-29.8h59.5c5.5,0,9.9-4.4,9.9-9.9S237.9,0,232.4,0h-59.5
				c-25.5,0-49.6,24.1-49.6,49.6v258C123.3,313,127.7,317.5,133.2,317.5z"/>
			<path d="M569.8,119.1c-5.5,0-9.9,4.4-9.9,9.9v178.6c0,5.5,4.4,9.9,9.9,9.9s9.9-4.4,9.9-9.9V129
				C579.7,123.5,575.2,119.1,569.8,119.1z"/>
			<path d="M510.2,129v178.6c0,5.5,4.4,9.9,9.9,9.9c5.5,0,9.9-4.4,9.9-9.9V129c0-5.5-4.4-9.9-9.9-9.9
				C514.7,119.1,510.2,123.5,510.2,129z"/>
			<path d="M530.1,575.4h-9.9v-9.9c0-5.5-4.4-9.9-9.9-9.9c-5.5,0-9.9,4.4-9.9,9.9v9.9h-19.8v-9.9c0-5.5-4.4-9.9-9.9-9.9
				s-9.9,4.4-9.9,9.9v9.9h-19.8v-9.9c0-5.5-4.4-9.9-9.9-9.9s-9.9,4.4-9.9,9.9v9.9h-19.8v-9.9c0-5.5-4.4-9.9-9.9-9.9
				c-5.5,0-9.9,4.4-9.9,9.9v9.9h-19.8v-9.9c0-5.5-4.4-9.9-9.9-9.9c-5.5,0-9.9,4.4-9.9,9.9v9.9h-19.8v-9.9c0-5.5-4.4-9.9-9.9-9.9
				s-9.9,4.4-9.9,9.9v9.9H282v-9.9c0-5.5-4.4-9.9-9.9-9.9c-5.5,0-9.9,4.4-9.9,9.9v9.9h-19.8v-9.9c0-5.5-4.4-9.9-9.9-9.9
				c-5.5,0-9.9,4.4-9.9,9.9v9.9h-19.8v-9.9c0-5.5-4.4-9.9-9.9-9.9c-5.5,0-9.9,4.4-9.9,9.9v9.9h-9.9c-5.5,0-9.9,4.4-9.9,9.9
				c0,5.5,4.4,9.9,9.9,9.9h357.2c5.5,0,9.9-4.4,9.9-9.9C540,579.9,535.6,575.4,530.1,575.4z"/>
			<path d="M470.6,317.5c5.5,0,9.9-4.4,9.9-9.9V92.1l39.7-63.5l31.7,50.7h-41.6c-5.5,0-9.9,4.4-9.9,9.9s4.4,9.9,9.9,9.9h59.5
				c3.6,0,6.9-2,8.7-5.1c1.7-3.2,1.6-7-0.3-10.1L528.6,4.7c-3.6-5.8-13.2-5.8-16.8,0L462.1,84c-1,1.6-1.5,3.4-1.5,5.3v218.3
				C460.6,313,465.1,317.5,470.6,317.5z"/>
			<path d="M669,0h-99.2c-5.5,0-9.9,4.4-9.9,9.9s4.4,9.9,9.9,9.9H669c14.5,0,29.8,15.3,29.8,29.8v357.2c0,14.5-15.3,29.8-29.8,29.8
				H172.9c-14.5,0-29.8-15.3-29.8-29.8v-49.6H669c5.5,0,9.9-4.4,9.9-9.9s-4.4-9.9-9.9-9.9H133.2c-5.5,0-9.9,4.4-9.9,9.9v59.5
				c0,25.5,24.1,49.6,49.6,49.6H669c25.5,0,49.6-24.1,49.6-49.6V49.6C718.6,24.1,694.5,0,669,0z"/>
			<path d="M401.1,396.9c0,10.9,8.9,19.8,19.8,19.8c10.9,0,19.8-8.9,19.8-19.8c0-10.9-8.9-19.8-19.8-19.8
				C410,377,401.1,385.9,401.1,396.9z"/>
			<path d="M470.6,535.8c5.5,0,9.9-4.4,9.9-9.9v-39.7c0-5.5-4.4-9.9-9.9-9.9s-9.9,4.4-9.9,9.9v39.7
				C460.6,531.3,465.1,535.8,470.6,535.8z"/>
			<path d="M381.3,525.8v-39.7c0-5.5-4.4-9.9-9.9-9.9c-5.5,0-9.9,4.4-9.9,9.9v39.7c0,5.5,4.4,9.9,9.9,9.9
				C376.8,535.8,381.3,531.3,381.3,525.8z"/>
			<path d="M639.2,535.8h-19.8c-21.9,0-39.7,17.8-39.7,39.7v9.9c0,5.5,4.4,9.9,9.9,9.9H669c5.5,0,9.9-4.4,9.9-9.9v-9.9
				C678.9,553.6,661.1,535.8,639.2,535.8z M599.5,575.4c0-10.9,8.9-19.8,19.8-19.8h19.8c10.9,0,19.8,8.9,19.8,19.8H599.5z"/>
		</g>
	</g>
</g>
</svg>
