<?xml version="1.0" encoding="utf-8"?>
<!-- Generator: Adobe Illustrator 18.0.0, SVG Export Plug-In . SVG Version: 6.00 Build 0)  -->
<!DOCTYPE svg PUBLIC "-//W3C//DTD SVG 1.1//EN" "http://www.w3.org/Graphics/SVG/1.1/DTD/svg11.dtd">
<svg version="1.1" id="Capa_1" xmlns="http://www.w3.org/2000/svg" xmlns:xlink="http://www.w3.org/1999/xlink" x="0px" y="0px"
	 viewBox="123.3 0 595.3 595.3" enable-background="new 123.3 0 595.3 595.3" xml:space="preserve">
<g>
	<g id="research-analysis-development-experiment-data_1_">
		<path d="M225.6,520.9c-35.9,0-65.1,29.2-65.1,65.1c0,5.1,4.2,9.3,9.3,9.3h111.6c5.1,0,9.3-4.2,9.3-9.3
			C290.7,550.1,261.5,520.9,225.6,520.9z M180.1,576.7c4.3-21.2,23.1-37.2,45.6-37.2s41.3,16,45.6,37.2H180.1z"/>
		<path d="M214.3,518c3.9,1.9,8.1,2.9,12.3,2.9c3.8,0,7.5-0.8,11-2.4c7.3-3.3,12.6-9.6,14.8-17.6c3.5-12.8-1.8-25.8-6.8-35.6
			c-0.5-1.1-1.7-2.9-6.7-10.3c-1.2-1.7-2.1-3.2-2.5-3.8c-0.9-1.6-2.3-2.9-4-3.7c-4.6-2.2-10.1-0.4-12.4,4.2
			c-0.1,0.1-0.1,0.3-0.2,0.4c-1.4,2.9-3.2,5.1-5.9,7.4c-7.6,6.4-16.3,15.7-16.3,30.6C197.7,502.1,204.1,512.9,214.3,518L214.3,518z
			 M226,473.6c0.7-0.6,1.3-1.1,1.9-1.7c0.5,0.8,1,1.5,1.1,1.7c3.2,6.4,7.3,15.6,5.4,22.4c-0.9,3.3-2.9,4.8-4.4,5.5
			c-2.3,1-5.1,0.9-7.4-0.2c-3.9-2-6.3-6.3-6.3-11.3C216.3,484.1,219,479.5,226,473.6z"/>
		<path d="M718.5,64.5c-0.1-0.8-0.2-1.6-0.5-2.4c-0.1-0.3-0.2-0.6-0.3-0.9c-0.5-1-1-1.9-1.8-2.7L660,2.7c-0.8-0.8-1.7-1.4-2.7-1.8
			c-0.3-0.1-0.5-0.2-0.8-0.3c-0.8-0.3-1.6-0.4-2.4-0.5c-0.2,0-0.4-0.1-0.5-0.1H514c-25.6,0-46.5,20.9-46.5,46.5v223.2
			c0,25.6,20.9,46.5,46.5,46.5h83.7v37.2c0,15.4,12.5,27.9,27.9,27.9h9.3c5.1,0,9.3,4.2,9.3,9.3s-4.2,9.3-9.3,9.3h-55.8
			c-15.4,0-27.9,12.5-27.9,27.9c0,15.4,12.5,27.9,27.9,27.9h9.3c5.1,0,9.3,4.2,9.3,9.3v37.2c0,5.1-4.2,9.3-9.3,9.3H514v-54.3
			l8.8-26.5c0.9-2.8,0.5-6-1.3-8.4c-1.7-2.4-4.6-3.9-7.5-3.9h-65.1V306.9c0-2.5-1-4.8-2.7-6.6L250.8,105c-2.7-2.7-6.7-3.5-10.1-2
			c-3.5,1.4-5.7,4.8-5.7,8.6v55.8h-18.6V0h-18.6v167.4c-2.9,0-5.6,1.3-7.3,3.6c-1.8,2.3-2.4,5.2-1.7,8l6.5,26.1
			c-3.9,1.1-6.8,4.5-6.8,8.8v90.8l-41.4,82.7c-3.5,6.9-3.8,14.7-1.2,21.8h-13.2c-5.1,0-9.3,4.2-9.3,9.3v176.7h18.6V427.9H172h107.2
			h30.1v167.4h18.6V418.6c0-5.1-4.2-9.3-9.3-9.3h-13.2c2.5-7.1,2.2-14.9-1.2-21.8l-41.4-82.7v-90.8c0-4.3-2.9-7.7-6.8-8.8l6.5-26.1
			c0.7-2.8,0.1-5.7-1.7-8c-1.8-2.3-4.5-3.6-7.3-3.6v-33.4l176.7,176.7v107.8h-46.5c-5.1,0-9.3,4.2-9.3,9.3v139.5
			c0,15.4,12.5,27.9,27.9,27.9h83.7c15.4,0,27.9-12.5,27.9-27.9v-37.2h74.4c15.4,0,27.9-12.5,27.9-27.9v-37.2
			c0-15.4-12.5-27.9-27.9-27.9h-9.3c-5.1,0-9.3-4.2-9.3-9.3s4.2-9.3,9.3-9.3h55.8c15.4,0,27.9-12.5,27.9-27.9
			c0-15.4-12.5-27.9-27.9-27.9h-9.3c-5.1,0-9.3-4.2-9.3-9.3v-37.2h55.8c25.6,0,46.5-20.9,46.5-46.5V65.1
			C718.6,64.9,718.5,64.7,718.5,64.5z M206,311.1c0.6-1.3,1-2.7,1-4.2v-83.7h37.2v83.7c0,1.4,0.3,2.9,1,4.2l11.9,23.7h-62.9
			L206,311.1z M237,204.6h-22.7l-4.7-18.6h32L237,204.6z M287.1,404.8c-0.8,1.3-3.2,4.4-7.9,4.4H172c-4.7,0-7.1-3.1-7.9-4.4
			c-0.8-1.3-2.5-4.9-0.4-9.1l21.2-42.3h81.5l21.2,42.3C289.6,400,288,403.5,287.1,404.8z M495.4,567.4c0,5.1-4.2,9.3-9.3,9.3h-83.7
			c-5.1,0-9.3-4.2-9.3-9.3v-9.3h18.6v-18.6H393v-18.6h18.6v-18.6H393v-18.6h18.6v-18.6H393v-27.9h37.2v18.6h18.6v-18.6h52.2
			l-5.2,15.7c-0.3,0.9-0.5,1.9-0.5,2.9v55.8h-11c-3.9-10.8-14.1-18.6-26.2-18.6c-15.4,0-27.9,12.5-27.9,27.9
			c0,15.4,12.5,27.9,27.9,27.9c12.1,0,22.3-7.8,26.2-18.6h11V567.4z M467.5,520.9c0,5.1-4.2,9.3-9.3,9.3c-5.1,0-9.3-4.2-9.3-9.3
			c0-5.1,4.2-9.3,9.3-9.3C463.3,511.6,467.5,515.7,467.5,520.9z M686.8,55.8h-24.1V31.8L686.8,55.8z M672.1,297.6H514
			c-15.4,0-27.9-12.5-27.9-27.9V46.5c0-15.4,12.5-27.9,27.9-27.9h130.2v46.5c0,5.1,4.2,9.3,9.3,9.3H700v195.3
			C700,285.1,687.5,297.6,672.1,297.6z"/>
		<path d="M569.8,167.4c35.9,0,65.1-29.2,65.1-65.1s-29.2-65.1-65.1-65.1s-65.1,29.2-65.1,65.1S533.9,167.4,569.8,167.4z
			 M569.8,148.8c-9.5,0-18.2-2.9-25.6-7.7l29.5-29.5h41.7C611,132.8,592.2,148.8,569.8,148.8z M615.3,93h-36.3V56.7
			C597.3,60.5,611.6,74.8,615.3,93z M560.5,56.7v41.7L531,127.9c-4.9-7.4-7.7-16.1-7.7-25.6C523.3,79.9,539.3,61.1,560.5,56.7z"/>
		<rect x="616.3" y="176.7" width="65.1" height="18.6"/>
		<rect x="504.7" y="213.9" width="176.7" height="18.6"/>
		<rect x="504.7" y="251.1" width="176.7" height="18.6"/>
		<rect x="504.7" y="176.7" width="27.9" height="18.6"/>
	</g>
	<g id="Layer_1_24_">
	</g>
</g>
</svg>
