<?xml version="1.0" encoding="utf-8"?>
<!-- Generator: Adobe Illustrator 18.0.0, SVG Export Plug-In . SVG Version: 6.00 Build 0)  -->
<!DOCTYPE svg PUBLIC "-//W3C//DTD SVG 1.1//EN" "http://www.w3.org/Graphics/SVG/1.1/DTD/svg11.dtd">
<svg version="1.1" id="Layer_1" xmlns="http://www.w3.org/2000/svg" xmlns:xlink="http://www.w3.org/1999/xlink" x="0px" y="0px"
	 viewBox="246.6 0 595.3 595.2" enable-background="new 246.6 0 595.3 595.2" xml:space="preserve">
<path fill="#FFFFFF" d="M544.2,0C379.9,0,246.6,133.3,246.6,297.6c0,164.4,133.3,297.6,297.6,297.6S841.9,462,841.9,297.6
	C841.9,133.3,708.6,0,544.2,0z M544.2,104.5l176.1,109.8H368.1L544.2,104.5z M722.6,389.8L722.6,389.8c0,17.6-14.3,31.9-31.9,31.9
	H397.8c-17.6,0-31.9-14.3-31.9-31.9V221.4c0-1.9,0.2-3.7,0.5-5.5l168.3,104.9c0.2,0.1,0.4,0.2,0.6,0.3s0.4,0.2,0.7,0.4
	c1.2,0.6,2.4,1.1,3.7,1.4c0.1,0,0.3,0.1,0.4,0.1c1.4,0.3,2.8,0.5,4.2,0.5l0,0l0,0c1.4,0,2.8-0.2,4.2-0.5c0.1,0,0.3,0,0.4-0.1
	c1.3-0.3,2.5-0.8,3.7-1.4c0.2-0.1,0.5-0.2,0.7-0.4c0.2-0.1,0.4-0.2,0.6-0.3l168.3-104.9c0.3,1.8,0.5,3.6,0.5,5.5L722.6,389.8
	L722.6,389.8z"/>
</svg>
