<?xml version="1.0" encoding="utf-8"?>
<!-- Generator: Adobe Illustrator 18.0.0, SVG Export Plug-In . SVG Version: 6.00 Build 0)  -->
<!DOCTYPE svg PUBLIC "-//W3C//DTD SVG 1.1//EN" "http://www.w3.org/Graphics/SVG/1.1/DTD/svg11.dtd">
<svg version="1.1" id="Layer_1" xmlns="http://www.w3.org/2000/svg" xmlns:xlink="http://www.w3.org/1999/xlink" x="0px" y="0px"
	 viewBox="246.6 0 595.3 595.2" enable-background="new 246.6 0 595.3 595.2" xml:space="preserve">
<circle fill="#FFFFFF" cx="544.2" cy="448.6" r="23.3"/>
<path fill="#FFFFFF" d="M609.1,135.4H479.4c-7.3,0-13.2,5.6-13.2,12.6v245.2c0,6.9,5.9,12.6,13.2,12.6h129.7
	c7.3,0,13.2-5.6,13.2-12.6V148C622.3,141.1,616.4,135.4,609.1,135.4z"/>
<path fill="#FFFFFF" d="M544.2,0C379.9,0,246.6,133.3,246.6,297.6s133.3,297.6,297.6,297.6S841.9,462,841.9,297.6S708.6,0,544.2,0z
	 M660,444.5c0,22.7-18.4,41.2-41.2,41.2H469.6c-22.7,0-41.2-18.4-41.2-41.2v-295c0-22.7,18.4-41.2,41.2-41.2h149.2
	c22.7,0,41.2,18.4,41.2,41.2V444.5z"/>
</svg>
