<?xml version="1.0" encoding="utf-8"?>
<!-- Generator: Adobe Illustrator 18.0.0, SVG Export Plug-In . SVG Version: 6.00 Build 0)  -->
<!DOCTYPE svg PUBLIC "-//W3C//DTD SVG 1.1//EN" "http://www.w3.org/Graphics/SVG/1.1/DTD/svg11.dtd">
<svg version="1.1" id="Layer_1" xmlns="http://www.w3.org/2000/svg" xmlns:xlink="http://www.w3.org/1999/xlink" x="0px" y="0px"
	 viewBox="246.6 0 595.3 595.2" enable-background="new 246.6 0 595.3 595.2" xml:space="preserve">
<circle fill="#FFFFFF" cx="545.1" cy="219.4" r="47.9"/>
<path fill="#FFFFFF" d="M544.2,0C379.9,0,246.6,133.3,246.6,297.6c0,164.4,133.3,297.6,297.6,297.6S841.9,462,841.9,297.6
	C841.9,133.3,708.6,0,544.2,0z M543.6,136.3c0.2,0,0.4,0,0.6,0s0.4,0,0.6,0c50.2,0.8,90.9,42.2,90.9,92.4
	c0,61.3-65.5,123.4-91.6,145.7c-1.7-1.5-3.7-3.2-5.7-5l-0.1-0.1c-28.8-25.6-85.7-83.4-85.7-140.6
	C452.7,178.5,493.5,137.1,543.6,136.3z M545.5,460.9c-54.9,0-110.5-15.7-110.5-45.8c0-21.1,27.4-35.2,62.6-41.7
	c6.8,6.9,13.3,12.9,18.9,18c-38.4,4.3-61,16.5-61,23.7c0,8.9,34.1,25.2,89.9,25.2c55.8,0,89.9-16.4,89.9-25.2
	c0-7.4-23.5-19.9-63.4-23.9c5.7-5.1,12.2-11.2,19.1-18.1c36.3,6.3,64.8,20.5,64.8,42.1C656,445.1,600.4,460.9,545.5,460.9z"/>
</svg>
