<?xml version="1.0" encoding="utf-8"?>
<!-- Generator: Adobe Illustrator 18.0.0, SVG Export Plug-In . SVG Version: 6.00 Build 0)  -->
<!DOCTYPE svg PUBLIC "-//W3C//DTD SVG 1.1//EN" "http://www.w3.org/Graphics/SVG/1.1/DTD/svg11.dtd">
<svg version="1.1" id="Calque_1" xmlns="http://www.w3.org/2000/svg" xmlns:xlink="http://www.w3.org/1999/xlink" x="0px" y="0px"
	 viewBox="-14.3 207.3 637.8 393.7" enable-background="new -14.3 207.3 637.8 393.7" xml:space="preserve">
<polyline fill="none" stroke="#EAEAEA" stroke-width="0.25" stroke-miterlimit="10" points="623.4,600.9 213.3,210.3 -14.2,340 "/>
<polyline fill="none" stroke="#EAEAEA" stroke-width="0.25" stroke-miterlimit="10" points="623.4,600.9 259.7,207.4 -14.2,340 "/>
<polyline fill="none" stroke="#EAEAEA" stroke-width="0.25" stroke-miterlimit="10" points="623.4,600.9 251.4,207.9 -14.2,340 "/>
<polyline fill="none" stroke="#EAEAEA" stroke-width="0.25" stroke-miterlimit="10" points="623.4,600.9 244.7,208.3 -14.2,340 "/>
<polyline fill="none" stroke="#EAEAEA" stroke-width="0.25" stroke-miterlimit="10" points="623.4,600.9 238.4,208.7 -14.2,340 "/>
<polyline fill="none" stroke="#EAEAEA" stroke-width="0.25" stroke-miterlimit="10" points="623.4,600.9 232.4,209 -14.2,340 "/>
<polyline fill="none" stroke="#EAEAEA" stroke-width="0.25" stroke-miterlimit="10" points="623.4,600.9 225.6,209.5 -14.2,340 "/>
<polyline fill="none" stroke="#EAEAEA" stroke-width="0.25" stroke-miterlimit="10" points="623.4,600.9 219.2,210 -14.2,340 "/>
<polyline fill="none" stroke="#EAEAEA" stroke-width="0.25" stroke-miterlimit="10" points="623.4,600.9 185.6,211.8 -14.2,340 "/>
<polyline fill="none" stroke="#EAEAEA" stroke-width="0.25" stroke-miterlimit="10" points="623.4,600.9 183.1,212 -14.2,340 "/>
<polyline fill="none" stroke="#EAEAEA" stroke-width="0.25" stroke-miterlimit="10" points="623.4,600.9 181,212.3 -14.2,340 "/>
<polyline fill="none" stroke="#EAEAEA" stroke-width="0.25" stroke-miterlimit="10" points="623.4,600.9 208.4,210.6 -14.2,340 "/>
<polyline fill="none" stroke="#EAEAEA" stroke-width="0.25" stroke-miterlimit="10" points="623.4,600.9 204.7,210.9 -14.2,340 "/>
<polyline fill="none" stroke="#EAEAEA" stroke-width="0.25" stroke-miterlimit="10" points="623.4,600.9 201.1,210.9 -14.2,340 "/>
<polyline fill="none" stroke="#EAEAEA" stroke-width="0.25" stroke-miterlimit="10" points="623.4,600.9 197.9,211.3 -14.2,340 "/>
<polyline fill="none" stroke="#EAEAEA" stroke-width="0.25" stroke-miterlimit="10" points="623.4,600.9 195.2,211.4 -14.2,340 "/>
<polyline fill="none" stroke="#EAEAEA" stroke-width="0.25" stroke-miterlimit="10" points="623.4,600.9 192.6,211.4 -14.2,340 "/>
<polyline fill="none" stroke="#EAEAEA" stroke-width="0.25" stroke-miterlimit="10" points="623.4,600.9 190.4,211.7 -14.2,340 "/>
<polyline fill="none" stroke="#EAEAEA" stroke-width="0.25" stroke-miterlimit="10" points="623.4,600.9 187.9,211.8 -14.2,340 "/>
<polyline fill="none" stroke="#EAEAEA" stroke-width="0.25" stroke-miterlimit="10" points="623.4,600.9 174.1,212.7 -14.2,340 "/>
<polyline fill="none" stroke="#EAEAEA" stroke-width="0.25" stroke-miterlimit="10" points="623.4,600.9 176,212.4 -14.2,340 "/>
<polyline fill="none" stroke="#EAEAEA" stroke-width="0.25" stroke-miterlimit="10" points="623.4,600.9 178.5,212.3 -14.2,340 "/>
</svg>
